<svg width="78" height="66" classname="lc_icon" viewBox="0 0 78 66" fill="none" xmlns="http://www.w3.org/2000/svg">
<path d="M42.51 6.10352e-05H12.92V29.5901H42.51V6.10352e-05ZM40.51 27.5901H14.92V2.00006H40.51V27.5901Z" fill="#486FFF"/>
<path d="M47.83 6.10352e-05V29.5901H77.42V6.10352e-05H47.83ZM75.42 27.5901H49.83V2.00006H75.42V27.5901Z" fill="#486FFF"/>
<path d="M47.83 64.51H77.42V34.92H47.83V64.51ZM49.83 36.92H75.42V62.51H49.83V36.92Z" fill="#486FFF"/>
<path d="M27.71 33.4401C21.71 33.4401 16.47 36.7101 13.65 41.5601L13.04 36.9701L4.82 32.7501L5.67 39.1201L0 42.1501L8.22 46.3701L12.45 44.1101C11.8 45.8601 11.43 47.7501 11.43 49.7201C11.43 58.6901 18.73 65.9901 27.7 65.9901C36.67 65.9901 43.97 58.6901 43.97 49.7201C43.97 40.7501 36.67 33.4501 27.7 33.4501L27.71 33.4401ZM27.71 63.9901C19.84 63.9901 13.44 57.5901 13.44 49.7201C13.44 47.9601 13.78 46.2701 14.36 44.7101L17.42 46.2801C17.06 47.3601 16.85 48.5101 16.85 49.7201C16.85 55.7001 21.72 60.5701 27.7 60.5701C33.68 60.5701 38.55 55.7001 38.55 49.7201C38.55 43.7401 33.68 38.8701 27.7 38.8701C23.63 38.8701 20.08 41.1301 18.22 44.4501L15.17 42.8901C17.6 38.4601 22.3 35.4501 27.7 35.4501C35.57 35.4501 41.97 41.8501 41.97 49.7201C41.97 57.5901 35.57 63.9901 27.7 63.9901H27.71ZM27.71 55.0001C30.63 55.0001 32.99 52.6401 32.99 49.7201C32.99 46.8001 30.63 44.4401 27.71 44.4401C25.79 44.4401 24.13 45.4701 23.21 47.0001L20.02 45.3601C21.54 42.6801 24.42 40.8601 27.72 40.8601C32.6 40.8601 36.57 44.8301 36.57 49.7101C36.57 54.5901 32.6 58.5601 27.72 58.5601C22.84 58.5601 18.87 54.5901 18.87 49.7101C18.87 48.8401 19 48.0001 19.24 47.2001L22.53 48.8901C22.49 49.1601 22.45 49.4301 22.45 49.7101C22.45 52.6301 24.81 54.9901 27.73 54.9901L27.71 55.0001Z" fill="#486FFF"/>
</svg>
