<svg width="74" height="87" classname="lc_icon" viewBox="0 0 74 87" fill="none" xmlns="http://www.w3.org/2000/svg">
<path d="M36.68 67.76C50.15 67.76 61.1 56.8 61.1 43.34C61.1 29.88 50.14 18.92 36.68 18.92C23.22 18.92 12.25 29.87 12.25 43.34C12.25 56.81 23.21 67.76 36.67 67.76H36.68ZM36.68 20.91C49.04 20.91 59.1 30.97 59.1 43.33C59.1 55.69 49.04 65.75 36.68 65.75C24.32 65.75 14.26 55.69 14.26 43.33C14.26 30.97 24.32 20.91 36.68 20.91Z" fill="#486FFF"/>
<path d="M37.84 6.69006L43.12 1.41006L41.71 6.10352e-05L34.05 7.66006L41.71 15.3201L43.12 13.9101L37.9 8.69006C56.45 9.34006 71.35 24.6301 71.35 43.3301C71.35 57.3301 63.01 69.8801 50.11 75.3101L50.89 77.1501C64.54 71.4101 73.36 58.1301 73.36 43.3301C73.36 23.5001 57.54 7.30006 37.85 6.68006L37.84 6.69006Z" fill="#486FFF"/>
<path d="M30.39 72.7601L35.61 77.9801C16.98 77.4101 2 62.0901 2 43.3301C2 29.3301 10.34 16.7801 23.24 11.3501L22.46 9.51007C8.82 15.2601 0 28.5301 0 43.3401C0 63.2201 15.91 79.4501 35.66 79.9901L30.39 85.2601L31.8 86.6701L39.46 79.0101L31.8 71.3501L30.39 72.7601Z" fill="#486FFF"/>
<path d="M29.66 49.4301H27.21C27.85 53.6901 30.95 56.5201 35.96 56.9401V60.2201H37.88V56.9701C43.2 56.6701 46.45 53.2701 46.45 49.4201C46.45 45.3401 43.96 42.9301 39.58 42.0601L37.88 41.6801V31.8301C41.01 32.2501 42.67 33.9101 43.24 36.4701H45.66C45.09 32.8501 42.38 30.0901 37.89 29.6401V26.3901H35.97V29.6001C31.14 29.9001 28.2 33.1501 28.2 36.6901C28.2 40.2301 30.58 42.4601 34.5 43.3301L35.97 43.6301V54.7201C32.8 54.3801 30.31 52.6801 29.67 49.4001L29.66 49.4301ZM37.89 44.0701L39.02 44.3001C42.15 44.9001 44 46.4501 44 49.4301C44 52.4101 41.36 54.6401 37.89 54.8301V44.0801V44.0701ZM35.02 41.0501C31.81 40.3301 30.64 39.0101 30.64 36.7101C30.64 33.9601 32.83 32.0701 35.96 31.8001V41.2701L35.02 41.0401V41.0501Z" fill="#486FFF"/>
</svg>
