<svg width="450" height="718" viewBox="0 0 450 718" fill="none" xmlns="http://www.w3.org/2000/svg">
<mask id="mask0_1_317" style="mask-type:alpha" maskUnits="userSpaceOnUse" x="-346" y="0" width="796" height="718">
<rect x="-346" width="796" height="718" fill="#C4C4C4"/>
</mask>
<g mask="url(#mask0_1_317)">
<path d="M143.517 731.238L93.0181 680.739L85.648 688.109L136.147 738.609L143.517 731.238Z" fill="#486FFF"/>
<path d="M76.0941 663.815L30.2355 617.957L22.8653 625.327L68.724 671.186L76.0941 663.815Z" fill="#486FFF"/>
<path d="M8.76187 596.483L-32.5472 555.174L-39.9174 562.544L1.39173 603.853L8.76187 596.483Z" fill="#486FFF"/>
<path d="M251.431 757.989L196.383 702.94L189.922 709.4L244.971 764.449L251.431 757.989Z" fill="#486FFF"/>
<path d="M184.099 690.657L133.6 640.157L127.14 646.618L177.639 697.117L184.099 690.657Z" fill="#486FFF"/>
<path d="M116.676 623.233L70.8173 577.375L64.3571 583.835L110.216 629.694L116.676 623.233Z" fill="#486FFF"/>
<path d="M49.3438 555.901L8.03467 514.592L1.57441 521.053L42.8835 562.362L49.3438 555.901Z" fill="#486FFF"/>
<path d="M291.921 717.499L236.873 662.45L231.322 668.001L286.371 723.049L291.921 717.499Z" fill="#486FFF"/>
<path d="M224.589 650.167L174.09 599.668L168.54 605.218L219.039 655.717L224.589 650.167Z" fill="#486FFF"/>
<path d="M157.166 582.744L111.307 536.885L105.757 542.435L151.616 588.294L157.166 582.744Z" fill="#486FFF"/>
<path d="M89.8336 515.411L48.5245 474.102L42.9742 479.653L84.2833 520.962L89.8336 515.411Z" fill="#486FFF"/>
<path d="M22.5016 448.079L-14.1672 411.411L-19.7175 416.961L16.9512 453.63L22.5016 448.079Z" fill="#486FFF"/>
<path d="M332.502 676.918L277.453 621.869L272.904 626.419L327.953 681.467L332.502 676.918Z" fill="#486FFF"/>
<path d="M265.17 609.586L214.671 559.087L210.121 563.636L260.62 614.135L265.17 609.586Z" fill="#486FFF"/>
<path d="M197.747 542.163L151.888 496.304L147.339 500.854L193.197 546.712L197.747 542.163Z" fill="#486FFF"/>
<path d="M130.415 474.831L89.1054 433.521L84.5559 438.071L125.865 479.38L130.415 474.831Z" fill="#486FFF"/>
<path d="M63.0824 407.498L26.4137 370.83L21.8642 375.379L58.533 412.048L63.0824 407.498Z" fill="#486FFF"/>
<path d="M399.561 743.977L344.513 688.929L339.963 693.478L395.012 748.527L399.561 743.977Z" fill="#486FFF"/>
<path d="M372.993 636.427L317.944 581.378L314.305 585.018L369.353 640.067L372.993 636.427Z" fill="#486FFF"/>
<path d="M305.661 569.095L255.162 518.596L251.522 522.235L302.021 572.735L305.661 569.095Z" fill="#486FFF"/>
<path d="M238.238 501.672L192.379 455.813L188.739 459.453L234.598 505.311L238.238 501.672Z" fill="#486FFF"/>
<path d="M170.905 434.34L129.596 393.031L125.957 396.67L167.266 437.979L170.905 434.34Z" fill="#486FFF"/>
<path d="M103.573 367.008L66.9046 330.339L63.265 333.978L99.9338 370.647L103.573 367.008Z" fill="#486FFF"/>
<path d="M36.2412 299.676L4.12195 267.556L0.482368 271.196L32.6016 303.315L36.2412 299.676Z" fill="#486FFF"/>
<path d="M440.052 703.486L385.003 648.438L381.364 652.077L436.412 707.126L440.052 703.486Z" fill="#486FFF"/>
<path d="M507.202 770.636L452.154 715.588L448.514 719.227L503.563 774.276L507.202 770.636Z" fill="#486FFF"/>
<path d="M413.483 595.937L358.434 540.889L355.705 543.618L410.753 598.667L413.483 595.937Z" fill="#486FFF"/>
<path d="M346.151 528.605L295.652 478.106L292.922 480.836L343.421 531.335L346.151 528.605Z" fill="#486FFF"/>
<path d="M278.728 461.182L232.869 415.323L230.139 418.053L275.998 463.912L278.728 461.182Z" fill="#486FFF"/>
<path d="M211.395 393.85L170.086 352.541L167.357 355.27L208.666 396.579L211.395 393.85Z" fill="#486FFF"/>
<path d="M144.063 326.518L107.395 289.849L104.665 292.579L141.334 329.247L144.063 326.518Z" fill="#486FFF"/>
<path d="M76.7311 259.185L44.6119 227.066L41.8822 229.796L74.0015 261.915L76.7311 259.185Z" fill="#486FFF"/>
<path d="M9.39899 191.853L-18.1708 164.284L-20.9005 167.013L6.66931 194.583L9.39899 191.853Z" fill="#486FFF"/>
<path d="M480.542 662.996L425.493 607.948L422.764 610.678L477.812 665.726L480.542 662.996Z" fill="#486FFF"/>
<path d="M454.065 555.355L399.016 500.307L397.196 502.126L452.245 557.175L454.065 555.355Z" fill="#486FFF"/>
<path d="M386.733 488.023L336.234 437.524L334.414 439.344L384.913 489.843L386.733 488.023Z" fill="#486FFF"/>
<path d="M319.31 420.6L273.451 374.741L271.631 376.561L317.49 422.42L319.31 420.6Z" fill="#486FFF"/>
<path d="M251.977 353.268L210.668 311.959L208.848 313.778L250.158 355.087L251.977 353.268Z" fill="#486FFF"/>
<path d="M184.645 285.936L147.977 249.267L146.157 251.087L182.826 287.755L184.645 285.936Z" fill="#486FFF"/>
<path d="M117.313 218.603L85.1938 186.484L83.3741 188.304L115.493 220.423L117.313 218.603Z" fill="#486FFF"/>
<path d="M49.981 151.271L22.4112 123.701L20.5914 125.521L48.1612 153.091L49.981 151.271Z" fill="#486FFF"/>
<path d="M494.555 514.865L439.506 459.817L438.596 460.727L493.645 515.775L494.555 514.865Z" fill="#486FFF"/>
<path d="M427.222 447.533L376.723 397.034L375.813 397.944L426.313 448.443L427.222 447.533Z" fill="#486FFF"/>
<path d="M359.799 380.11L313.941 334.252L313.031 335.161L358.889 381.02L359.799 380.11Z" fill="#486FFF"/>
<path d="M292.467 312.778L251.158 271.469L250.248 272.379L291.557 313.688L292.467 312.778Z" fill="#486FFF"/>
<path d="M225.135 245.446L188.466 208.777L187.556 209.687L224.225 246.356L225.135 245.446Z" fill="#486FFF"/>
<path d="M157.803 178.114L125.684 145.994L124.774 146.904L156.893 179.024L157.803 178.114Z" fill="#486FFF"/>
<path d="M90.4708 110.781L62.901 83.2117L61.9911 84.1216L89.5609 111.691L90.4708 110.781Z" fill="#486FFF"/>
<path d="M23.0477 43.3586L0.118408 20.4293L-0.791485 21.3392L22.1378 44.2685L23.0477 43.3586Z" fill="#486FFF"/>
<path d="M34.6945 705.215L-11.1641 659.356L-17.6244 665.817L28.2343 711.675L34.6945 705.215Z" fill="#486FFF"/>
</g>
</svg>
