<svg width="81" height="81" classname="lc_icon" viewBox="0 0 81 81" fill="none" xmlns="http://www.w3.org/2000/svg">
<path d="M40.42 17.2201C27.63 17.2201 17.23 27.6201 17.23 40.4101C17.23 53.2001 27.63 63.6001 40.42 63.6001C53.21 63.6001 63.61 53.2001 63.61 40.4101C63.61 27.6201 53.21 17.2201 40.42 17.2201ZM40.42 61.6001C28.73 61.6001 19.23 52.0901 19.23 40.4101C19.23 28.7301 28.74 19.2201 40.42 19.2201C52.1 19.2201 61.61 28.7301 61.61 40.4101C61.61 52.0901 52.1 61.6001 40.42 61.6001Z" fill="#486FFF"/>
<path d="M80.83 49.7201V31.1101H73.43C72.7 28.5201 71.66 26.0201 70.33 23.6501L75.57 18.4101L62.42 5.26012L57.18 10.5001C54.81 9.17012 52.31 8.13012 49.72 7.40012V0.00012207H31.11V7.40012C28.52 8.13012 26.02 9.17012 23.65 10.5001L18.41 5.26012L5.26 18.4201L10.5 23.6601C9.17 26.0301 8.13 28.5301 7.4 31.1201H0V49.7201H7.4C8.13 52.3101 9.17 54.8101 10.5 57.1801L5.26 62.4201L18.41 75.5701L23.65 70.3301C26.02 71.6601 28.52 72.7001 31.11 73.4301V80.8301H49.71V73.4301C52.3 72.7001 54.8 71.6601 57.17 70.3301L62.41 75.5701L75.56 62.4201L70.32 57.1801C71.65 54.8101 72.69 52.3101 73.42 49.7201H80.82H80.83ZM71.69 48.4701C70.94 51.3901 69.77 54.2101 68.22 56.8301L67.82 57.5001L72.74 62.4201L62.41 72.7501L57.49 67.8301L56.82 68.2301C54.19 69.7801 51.38 70.9501 48.46 71.7001L47.71 71.8901V78.8301H33.11V71.8901L32.36 71.7001C29.44 70.9501 26.63 69.7801 24 68.2301L23.33 67.8301L18.41 72.7501L8.08 62.4201L13 57.5001L12.6 56.8301C11.04 54.2001 9.88 51.3901 9.13 48.4701L8.94 47.7201H2V33.1201H8.95L9.14 32.3701C9.89 29.4501 11.06 26.6401 12.61 24.0101L13.01 23.3401L8.09 18.4201L18.42 8.09012L23.34 13.0101L24.01 12.6101C26.64 11.0601 29.45 9.89012 32.37 9.14012L33.12 8.95012V2.00012H47.72V8.94012L48.47 9.13012C51.39 9.88012 54.21 11.0501 56.83 12.6001L57.5 13.0001L62.42 8.08012L72.75 18.4101L67.83 23.3301L68.23 24.0001C69.79 26.6301 70.95 29.4401 71.7 32.3601L71.89 33.1101H78.84V47.7101H71.89L71.7 48.4601L71.69 48.4701Z" fill="#486FFF"/>
<path d="M41.42 24.7501H39.42V41.0801L51.94 46.4501L52.73 44.6201L41.42 39.7601V24.7501Z" fill="#486FFF"/>
</svg>
