<svg width="71" height="71" classname="lc_icon" viewBox="0 0 71 71" fill="none" xmlns="http://www.w3.org/2000/svg">
<path d="M32.36 8.24005H31.36C14.07 8.24005 0 22.3001 0 39.5901C0 56.8801 14.07 70.9501 31.36 70.9501C48.65 70.9501 62.72 56.8801 62.72 39.5901V38.5901H32.36V8.24005ZM60.7 40.6001C60.17 56.3301 47.21 68.9601 31.36 68.9601C15.51 68.9601 2 55.7801 2 39.5901C2 23.4001 14.63 10.7801 30.36 10.2501V40.59H60.7V40.6001Z" fill="#486FFF"/>
<path d="M39.59 6.10352e-05H38.59V32.3601H70.95V31.3601C70.95 14.0701 56.88 6.10352e-05 39.59 6.10352e-05ZM40.59 30.3601V2.02006C55.98 2.54006 68.41 14.9701 68.93 30.3601H40.59Z" fill="#486FFF"/>
<path d="M10.32 35.82L11.74 37.24L16.6 32.37V52.32H18.6V32.37L23.47 37.24L24.89 35.82L17.6 28.54L10.32 35.82Z" fill="#486FFF"/>
</svg>
