<svg width="120" height="38" viewBox="0 0 120 38" fill="none" xmlns="http://www.w3.org/2000/svg">
<path d="M22.2553 9.97281L19.4932 12.7349C17.9218 11.1635 15.3616 11.1635 13.7901 12.7349L2.76212 23.763L0 21.0008L11.028 9.97281C14.1223 6.87853 19.1611 6.87853 22.2553 9.97281Z" fill="#486FFF"/>
<path d="M33.2808 10.1747L22.2528 21.2027C19.1585 24.297 14.1197 24.297 11.0255 21.2027L13.7876 18.4406C15.359 20.012 17.9192 20.012 19.4907 18.4406L30.5187 7.4126L33.2808 10.1747Z" fill="#486FFF"/>
<path d="M27.6673 26.6147C21.586 32.6959 11.6925 32.6959 5.61377 26.6147L8.37589 23.8525C12.9343 28.4109 20.3493 28.4109 24.9051 23.8525L27.6673 26.6147Z" fill="#486FFF"/>
<path d="M27.6673 4.56094L24.9051 7.32306C20.3468 2.76467 12.9317 2.76467 8.37589 7.32306L5.61377 4.56094C11.695 -1.52031 21.5886 -1.52031 27.6673 4.56094Z" fill="#486FFF"/>
<path d="M52.0356 28.3572L46.6366 19.0539H41.6745V28.3572H37.4789V2.81592H47.697C49.9966 2.81592 51.9283 3.61823 53.4997 5.22287C55.1044 6.79173 55.9067 8.72598 55.9067 11.0231C55.9067 14.2706 53.8626 17.227 50.8347 18.4304L56.6374 28.3546H52.0407L52.0356 28.3572ZM41.6745 6.75851V15.2953H47.6944C49.92 15.2953 51.7086 13.3968 51.7086 11.0256C51.7086 8.65443 49.92 6.75596 47.6944 6.75596H41.6745V6.75851Z" fill="white"/>
<path d="M60.2811 20.9141C60.8662 23.6864 63.0917 25.2195 66.1196 25.2195C68.1995 25.2195 69.7683 24.453 70.8262 22.9582L74.0738 24.8567C72.2851 27.5191 69.6227 28.835 66.0838 28.835C63.1275 28.835 60.7205 27.9228 58.8962 26.1342C57.0718 24.3099 56.1596 22.0102 56.1596 19.2379C56.1596 16.4656 57.0718 14.24 58.8604 12.4156C60.649 10.5555 62.9844 9.64331 65.7925 9.64331C68.4575 9.64331 70.6447 10.5913 72.3592 12.4514C74.0738 14.3116 74.9502 16.6112 74.9502 19.2737C74.9502 19.6748 74.9144 20.2216 74.8045 20.9166H60.2811V20.9141ZM70.9718 17.7022C70.425 14.7459 68.3451 13.2154 65.7542 13.2154C62.8362 13.2154 60.7921 14.9299 60.2453 17.7022H70.9718Z" fill="white"/>
<path d="M76.9533 28.357V1.72217H80.8933V28.357H76.9533Z" fill="white"/>
<path d="M98.4447 10.1135H102.385V28.3572H98.4447V25.7305C96.95 27.8104 94.8318 28.8325 92.0594 28.8325C89.5426 28.8325 87.4244 27.9203 85.6383 26.0601C83.8497 24.2 82.9733 21.9004 82.9733 19.2379C82.9733 16.5754 83.8497 14.2758 85.6383 12.4156C87.4269 10.5555 89.5426 9.64331 92.0594 9.64331C94.8318 9.64331 96.95 10.6654 98.4447 12.7069V10.116V10.1135ZM92.6803 25.0739C94.3233 25.0739 95.7082 24.5271 96.8043 23.4309C97.8979 22.299 98.4473 20.9141 98.4473 19.2353C98.4473 17.5566 97.9005 16.1692 96.8043 15.0756C95.7107 13.9436 94.3233 13.3968 92.6803 13.3968C91.0374 13.3968 89.6525 13.9436 88.5563 15.0756C87.4627 16.1692 86.9134 17.5566 86.9134 19.2353C86.9134 20.9141 87.4602 22.299 88.5563 23.4309C89.6499 24.5245 91.0374 25.0739 92.6803 25.0739Z" fill="white"/>
<path d="M111.944 19.1483H116.149L120 10.1133H115.845L111.944 19.1483Z" fill="white"/>
<path d="M108.093 38.0436H103.785L109.815 24.0797L103.785 10.1133H108.093L114.047 24.0797L108.093 38.0436Z" fill="white"/>
</svg>
