<svg width="71" height="77" classname="lc_icon" viewBox="0 0 71 77" fill="none" xmlns="http://www.w3.org/2000/svg">
<path d="M25.06 76.8601H45.76V42.0101H25.06V76.8601ZM27.06 44.0101H43.76V74.8601H27.06V44.0101Z" fill="#486FFF"/>
<path d="M0 76.8601H20.7V54.5901H0V76.8601ZM2 56.5901H18.7V74.8601H2V56.5901Z" fill="#486FFF"/>
<path d="M50.1101 60.9001V76.8601H70.8101V60.9001H50.1101ZM68.8101 74.8601H52.1101V62.9001H68.8101V74.8601Z" fill="#486FFF"/>
<path d="M54.2 13.6601L41.21 11.7701L35.4 6.10352e-05L29.59 11.7701L16.6 13.6601L26 22.8201L23.78 35.7601L35.4 29.6501L47.02 35.7601L44.8 22.8201L54.2 13.6601ZM35.4 27.3901L26.44 32.1001L28.15 22.1201L20.9 15.0501L30.92 13.5901L35.4 4.51006L39.88 13.5901L49.9 15.0501L42.65 22.1201L44.36 32.1001L35.4 27.3901Z" fill="#486FFF"/>
</svg>
