<svg width="85" height="74" classname="lc_icon" viewBox="0 0 85 74" fill="none" xmlns="http://www.w3.org/2000/svg">
<path d="M69.59 19.42V15.26H65.83C65.51 14.21 65.08 13.18 64.56 12.2L67.22 9.54L60.05 2.37L57.39 5.03C56.41 4.51 55.39 4.08 54.33 3.76V0H44.19V3.76C43.14 4.08 42.11 4.51 41.13 5.03L38.47 2.37L31.3 9.54L33.96 12.2C33.44 13.18 33.01 14.2 32.69 15.26H28.93V19.33H15.92L13.35 9.28H0V11.28H11.8L22.5 53.14H75.87L84.05 19.42H69.59ZM30.92 17.26H34.21L34.4 16.51C34.76 15.12 35.31 13.79 36.05 12.54L36.45 11.87L34.12 9.54L38.46 5.2L40.79 7.53L41.46 7.13C42.71 6.39 44.04 5.84 45.43 5.48L46.18 5.29V2H52.32V5.29L53.07 5.48C54.46 5.84 55.79 6.39 57.04 7.13L57.71 7.53L60.04 5.2L64.38 9.54L62.05 11.87L62.45 12.54C63.19 13.79 63.74 15.12 64.1 16.51L64.29 17.26H67.58V23.4H64.29L64.1 24.15C63.74 25.54 63.19 26.87 62.45 28.12L62.05 28.79L64.38 31.12L60.04 35.46L57.71 33.13L57.04 33.53C55.79 34.27 54.46 34.82 53.07 35.18L52.32 35.37V38.66H46.18V35.37L45.43 35.18C44.04 34.82 42.71 34.27 41.46 33.53L40.79 33.13L38.46 35.46L34.12 31.12L36.45 28.79L36.05 28.12C35.31 26.87 34.76 25.54 34.4 24.15L34.21 23.4H30.92V17.26ZM74.3 51.14H24.05L16.43 21.33H28.92V25.4H32.68C33 26.45 33.43 27.48 33.95 28.46L31.29 31.12L38.46 38.29L41.12 35.63C42.1 36.15 43.12 36.58 44.18 36.9V40.66H54.32V36.9C55.37 36.58 56.4 36.15 57.38 35.63L60.04 38.29L67.21 31.12L64.55 28.46C65.07 27.48 65.5 26.46 65.82 25.4H69.58V21.42H81.5L74.29 51.14H74.3Z" fill="#486FFF"/>
<path d="M68.18 58.84H30.33C26.21 58.84 22.85 62.19 22.85 66.32C22.85 70.45 26.2 73.8 30.33 73.8C34.46 73.8 37.81 70.45 37.81 66.32C37.81 64.16 36.88 62.21 35.41 60.84H63.11C61.64 62.21 60.71 64.15 60.71 66.32C60.71 70.44 64.06 73.8 68.19 73.8C72.32 73.8 75.67 70.45 75.67 66.32C75.67 62.19 72.32 58.84 68.19 58.84H68.18ZM35.81 66.32C35.81 69.34 33.35 71.8 30.33 71.8C27.31 71.8 24.85 69.34 24.85 66.32C24.85 63.3 27.31 60.84 30.33 60.84C33.35 60.84 35.81 63.3 35.81 66.32ZM68.18 71.8C65.16 71.8 62.7 69.34 62.7 66.32C62.7 63.3 65.16 60.84 68.18 60.84C71.2 60.84 73.66 63.3 73.66 66.32C73.66 69.34 71.2 71.8 68.18 71.8Z" fill="#486FFF"/>
<path d="M49.2501 30.95C55.1001 30.95 59.8601 26.19 59.8601 20.34C59.8601 14.49 55.1001 9.72998 49.2501 9.72998C43.4001 9.72998 38.6401 14.49 38.6401 20.34C38.6401 26.19 43.4001 30.95 49.2501 30.95ZM49.2501 11.72C54.0001 11.72 57.8601 15.58 57.8601 20.33C57.8601 25.08 54.0001 28.94 49.2501 28.94C44.5001 28.94 40.6401 25.08 40.6401 20.33C40.6401 15.58 44.5001 11.72 49.2501 11.72Z" fill="#486FFF"/>
</svg>
